<?xml version="1.0" encoding="UTF-8"?>
<svg id="Layer_2" data-name="Layer 2" xmlns="http://www.w3.org/2000/svg" viewBox="0 0 23 32">
  <defs>
    <style>
      .cls-1 {
        fill: #b4202a;
      }

      .cls-1, .cls-2 {
        stroke-width: 0px;
      }

      .cls-2 {
        fill: #fff;
      }
    </style>
  </defs>
  <g id="mouse">
    <g>
      <rect class="cls-2" x="22" y="25" width="1" height="1"/>
      <rect class="cls-2" x="22" y="24" width="1" height="1"/>
      <rect class="cls-2" x="22" y="23" width="1" height="1"/>
      <rect class="cls-2" x="22" y="22" width="1" height="1"/>
      <rect class="cls-2" x="22" y="21" width="1" height="1"/>
      <rect class="cls-2" x="22" y="20" width="1" height="1"/>
      <rect class="cls-2" x="22" y="19" width="1" height="1"/>
      <rect class="cls-2" x="22" y="18" width="1" height="1"/>
      <rect class="cls-2" x="22" y="17" width="1" height="1"/>
      <rect class="cls-2" x="22" y="16" width="1" height="1"/>
      <rect class="cls-2" x="22" y="15" width="1" height="1"/>
      <rect class="cls-2" x="22" y="14" width="1" height="1"/>
      <rect class="cls-2" x="22" y="13" width="1" height="1"/>
      <rect class="cls-2" x="22" y="12" width="1" height="1"/>
      <rect class="cls-2" x="22" y="11" width="1" height="1"/>
      <rect class="cls-2" x="22" y="10" width="1" height="1"/>
      <rect class="cls-2" x="22" y="9" width="1" height="1"/>
      <rect class="cls-2" x="22" y="8" width="1" height="1"/>
      <rect class="cls-2" x="22" y="7" width="1" height="1"/>
      <rect class="cls-2" x="22" y="6" width="1" height="1"/>
      <rect class="cls-2" x="21" y="25" width="1" height="1"/>
      <rect class="cls-2" x="21" y="24" width="1" height="1"/>
      <rect class="cls-2" x="21" y="23" width="1" height="1"/>
      <rect class="cls-2" x="21" y="22" width="1" height="1"/>
      <rect class="cls-2" x="21" y="21" width="1" height="1"/>
      <rect class="cls-2" x="21" y="20" width="1" height="1"/>
      <rect class="cls-2" x="21" y="19" width="1" height="1"/>
      <rect class="cls-2" x="21" y="18" width="1" height="1"/>
      <rect class="cls-2" x="21" y="17" width="1" height="1"/>
      <rect class="cls-2" x="21" y="16" width="1" height="1"/>
      <rect class="cls-2" x="21" y="15" width="1" height="1"/>
      <rect class="cls-2" x="21" y="14" width="1" height="1"/>
      <rect class="cls-2" x="21" y="13" width="1" height="1"/>
      <rect class="cls-2" x="21" y="12" width="1" height="1"/>
      <rect class="cls-2" x="21" y="11" width="1" height="1"/>
      <rect class="cls-2" x="21" y="10" width="1" height="1"/>
      <rect class="cls-2" x="21" y="9" width="1" height="1"/>
      <rect class="cls-2" x="21" y="8" width="1" height="1"/>
      <rect class="cls-2" x="21" y="7" width="1" height="1"/>
      <rect class="cls-2" x="21" y="6" width="1" height="1"/>
      <rect class="cls-2" x="20" y="27" width="1" height="1"/>
      <rect class="cls-2" x="20" y="26" width="1" height="1"/>
      <rect class="cls-2" x="20" y="17" width="1" height="1"/>
      <rect class="cls-2" x="20" y="16" width="1" height="1"/>
      <rect class="cls-2" x="20" y="5" width="1" height="1"/>
      <rect class="cls-2" x="20" y="4" width="1" height="1"/>
      <rect class="cls-2" x="19" y="27" width="1" height="1"/>
      <rect class="cls-2" x="19" y="26" width="1" height="1"/>
      <rect class="cls-2" x="19" y="17" width="1" height="1"/>
      <rect class="cls-2" x="19" y="16" width="1" height="1"/>
      <rect class="cls-2" x="19" y="5" width="1" height="1"/>
      <rect class="cls-2" x="19" y="4" width="1" height="1"/>
      <rect class="cls-2" x="18" y="29" width="1" height="1"/>
      <rect class="cls-2" x="18" y="28" width="1" height="1"/>
      <rect class="cls-2" x="18" y="17" width="1" height="1"/>
      <rect class="cls-2" x="18" y="16" width="1" height="1"/>
      <rect class="cls-2" x="18" y="3" width="1" height="1"/>
      <rect class="cls-2" x="18" y="2" width="1" height="1"/>
      <rect class="cls-2" x="17" y="29" width="1" height="1"/>
      <rect class="cls-2" x="17" y="28" width="1" height="1"/>
      <rect class="cls-2" x="17" y="17" width="1" height="1"/>
      <rect class="cls-2" x="17" y="16" width="1" height="1"/>
      <rect class="cls-2" x="17" y="3" width="1" height="1"/>
      <rect class="cls-2" x="17" y="2" width="1" height="1"/>
      <rect class="cls-2" x="16" y="31" width="1" height="1"/>
      <rect class="cls-2" x="16" y="30" width="1" height="1"/>
      <rect class="cls-2" x="16" y="17" width="1" height="1"/>
      <rect class="cls-2" x="16" y="16" width="1" height="1"/>
      <rect class="cls-2" x="16" y="1" width="1" height="1"/>
      <rect class="cls-2" x="16" width="1" height="1"/>
      <rect class="cls-2" x="15" y="31" width="1" height="1"/>
      <rect class="cls-2" x="15" y="30" width="1" height="1"/>
      <rect class="cls-2" x="15" y="17" width="1" height="1"/>
      <rect class="cls-2" x="15" y="16" width="1" height="1"/>
      <rect class="cls-2" x="15" y="1" width="1" height="1"/>
      <rect class="cls-2" x="15" width="1" height="1"/>
      <rect class="cls-2" x="14" y="31" width="1" height="1"/>
      <rect class="cls-2" x="14" y="30" width="1" height="1"/>
      <rect class="cls-2" x="14" y="17" width="1" height="1"/>
      <rect class="cls-2" x="14" y="16" width="1" height="1"/>
      <rect class="cls-2" x="14" y="1" width="1" height="1"/>
      <rect class="cls-2" x="14" width="1" height="1"/>
      <rect class="cls-2" x="13" y="31" width="1" height="1"/>
      <rect class="cls-2" x="13" y="30" width="1" height="1"/>
      <rect class="cls-2" x="13" y="17" width="1" height="1"/>
      <rect class="cls-2" x="13" y="16" width="1" height="1"/>
      <rect class="cls-2" x="13" y="15" width="1" height="1"/>
      <rect class="cls-2" x="13" y="14" width="1" height="1"/>
      <rect class="cls-2" x="13" y="13" width="1" height="1"/>
      <rect class="cls-2" x="13" y="12" width="1" height="1"/>
      <rect class="cls-2" x="13" y="11" width="1" height="1"/>
      <rect class="cls-2" x="13" y="10" width="1" height="1"/>
      <rect class="cls-2" x="13" y="9" width="1" height="1"/>
      <rect class="cls-2" x="13" y="8" width="1" height="1"/>
      <rect class="cls-2" x="13" y="7" width="1" height="1"/>
      <rect class="cls-2" x="13" y="6" width="1" height="1"/>
      <rect class="cls-2" x="13" y="5" width="1" height="1"/>
      <rect class="cls-2" x="13" y="4" width="1" height="1"/>
      <rect class="cls-2" x="13" y="3" width="1" height="1"/>
      <rect class="cls-2" x="13" y="2" width="1" height="1"/>
      <rect class="cls-2" x="13" y="1" width="1" height="1"/>
      <rect class="cls-2" x="13" width="1" height="1"/>
      <rect class="cls-2" x="12" y="31" width="1" height="1"/>
      <rect class="cls-2" x="12" y="30" width="1" height="1"/>
      <rect class="cls-2" x="12" y="17" width="1" height="1"/>
      <rect class="cls-2" x="12" y="16" width="1" height="1"/>
      <rect class="cls-2" x="12" y="15" width="1" height="1"/>
      <rect class="cls-2" x="12" y="14" width="1" height="1"/>
      <rect class="cls-2" x="12" y="13" width="1" height="1"/>
      <rect class="cls-2" x="12" y="12" width="1" height="1"/>
      <rect class="cls-2" x="12" y="11" width="1" height="1"/>
      <rect class="cls-2" x="12" y="10" width="1" height="1"/>
      <rect class="cls-2" x="12" y="9" width="1" height="1"/>
      <rect class="cls-2" x="12" y="8" width="1" height="1"/>
      <rect class="cls-2" x="12" y="7" width="1" height="1"/>
      <rect class="cls-2" x="12" y="6" width="1" height="1"/>
      <rect class="cls-2" x="12" y="5" width="1" height="1"/>
      <rect class="cls-2" x="12" y="4" width="1" height="1"/>
      <rect class="cls-2" x="12" y="3" width="1" height="1"/>
      <rect class="cls-2" x="12" y="2" width="1" height="1"/>
      <rect class="cls-2" x="12" y="1" width="1" height="1"/>
      <rect class="cls-2" x="12" width="1" height="1"/>
      <rect class="cls-2" x="11" y="31" width="1" height="1"/>
      <rect class="cls-2" x="11" y="30" width="1" height="1"/>
      <rect class="cls-2" x="11" y="17" width="1" height="1"/>
      <rect class="cls-2" x="11" y="16" width="1" height="1"/>
      <rect class="cls-2" x="11" y="15" width="1" height="1"/>
      <rect class="cls-2" x="11" y="14" width="1" height="1"/>
      <rect class="cls-2" x="11" y="13" width="1" height="1"/>
      <rect class="cls-2" x="11" y="12" width="1" height="1"/>
      <rect class="cls-2" x="11" y="11" width="1" height="1"/>
      <rect class="cls-2" x="11" y="10" width="1" height="1"/>
      <rect class="cls-2" x="11" y="9" width="1" height="1"/>
      <rect class="cls-2" x="11" y="8" width="1" height="1"/>
      <rect class="cls-2" x="11" y="7" width="1" height="1"/>
      <rect class="cls-2" x="11" y="6" width="1" height="1"/>
      <rect class="cls-2" x="11" y="5" width="1" height="1"/>
      <rect class="cls-2" x="11" y="4" width="1" height="1"/>
      <rect class="cls-2" x="11" y="3" width="1" height="1"/>
      <rect class="cls-2" x="11" y="2" width="1" height="1"/>
      <rect class="cls-2" x="11" y="1" width="1" height="1"/>
      <rect class="cls-2" x="11" width="1" height="1"/>
      <rect class="cls-2" x="10" y="31" width="1" height="1"/>
      <rect class="cls-2" x="10" y="30" width="1" height="1"/>
      <rect class="cls-2" x="10" y="17" width="1" height="1"/>
      <rect class="cls-2" x="10" y="16" width="1" height="1"/>
      <rect class="cls-2" x="10" y="15" width="1" height="1"/>
      <rect class="cls-2" x="10" y="14" width="1" height="1"/>
      <rect class="cls-2" x="10" y="13" width="1" height="1"/>
      <rect class="cls-2" x="10" y="12" width="1" height="1"/>
      <rect class="cls-2" x="10" y="11" width="1" height="1"/>
      <rect class="cls-2" x="10" y="10" width="1" height="1"/>
      <rect class="cls-2" x="10" y="9" width="1" height="1"/>
      <rect class="cls-2" x="10" y="8" width="1" height="1"/>
      <rect class="cls-2" x="10" y="7" width="1" height="1"/>
      <rect class="cls-2" x="10" y="6" width="1" height="1"/>
      <rect class="cls-2" x="10" y="5" width="1" height="1"/>
      <rect class="cls-2" x="10" y="4" width="1" height="1"/>
      <rect class="cls-2" x="10" y="3" width="1" height="1"/>
      <rect class="cls-2" x="10" y="2" width="1" height="1"/>
      <rect class="cls-2" x="10" y="1" width="1" height="1"/>
      <rect class="cls-2" x="10" width="1" height="1"/>
      <rect class="cls-2" x="9" y="31" width="1" height="1"/>
      <rect class="cls-2" x="9" y="30" width="1" height="1"/>
      <rect class="cls-2" x="9" y="17" width="1" height="1"/>
      <rect class="cls-2" x="9" y="16" width="1" height="1"/>
      <rect class="cls-2" x="9" y="15" width="1" height="1"/>
      <rect class="cls-2" x="9" y="14" width="1" height="1"/>
      <rect class="cls-2" x="9" y="13" width="1" height="1"/>
      <rect class="cls-2" x="9" y="12" width="1" height="1"/>
      <rect class="cls-2" x="9" y="11" width="1" height="1"/>
      <rect class="cls-2" x="9" y="10" width="1" height="1"/>
      <rect class="cls-2" x="9" y="9" width="1" height="1"/>
      <rect class="cls-2" x="9" y="8" width="1" height="1"/>
      <rect class="cls-2" x="9" y="7" width="1" height="1"/>
      <rect class="cls-2" x="9" y="6" width="1" height="1"/>
      <rect class="cls-2" x="9" y="5" width="1" height="1"/>
      <rect class="cls-2" x="9" y="4" width="1" height="1"/>
      <rect class="cls-2" x="9" y="3" width="1" height="1"/>
      <rect class="cls-2" x="9" y="2" width="1" height="1"/>
      <rect class="cls-2" x="9" y="1" width="1" height="1"/>
      <rect class="cls-2" x="9" width="1" height="1"/>
      <rect class="cls-2" x="8" y="31" width="1" height="1"/>
      <rect class="cls-2" x="8" y="30" width="1" height="1"/>
      <rect class="cls-2" x="8" y="17" width="1" height="1"/>
      <rect class="cls-2" x="8" y="16" width="1" height="1"/>
      <rect class="cls-1" x="8" y="15" width="1" height="1"/>
      <rect class="cls-1" x="8" y="14" width="1" height="1"/>
      <rect class="cls-1" x="8" y="13" width="1" height="1"/>
      <rect class="cls-1" x="8" y="12" width="1" height="1"/>
      <rect class="cls-1" x="8" y="11" width="1" height="1"/>
      <rect class="cls-1" x="8" y="10" width="1" height="1"/>
      <rect class="cls-1" x="8" y="9" width="1" height="1"/>
      <rect class="cls-1" x="8" y="8" width="1" height="1"/>
      <rect class="cls-1" x="8" y="7" width="1" height="1"/>
      <rect class="cls-1" x="8" y="6" width="1" height="1"/>
      <rect class="cls-1" x="8" y="5" width="1" height="1"/>
      <rect class="cls-1" x="8" y="4" width="1" height="1"/>
      <rect class="cls-1" x="8" y="3" width="1" height="1"/>
      <rect class="cls-1" x="8" y="2" width="1" height="1"/>
      <rect class="cls-2" x="8" y="1" width="1" height="1"/>
      <rect class="cls-2" x="8" width="1" height="1"/>
      <rect class="cls-2" x="7" y="31" width="1" height="1"/>
      <rect class="cls-2" x="7" y="30" width="1" height="1"/>
      <rect class="cls-2" x="7" y="17" width="1" height="1"/>
      <rect class="cls-2" x="7" y="16" width="1" height="1"/>
      <rect class="cls-1" x="7" y="15" width="1" height="1"/>
      <rect class="cls-1" x="7" y="14" width="1" height="1"/>
      <rect class="cls-1" x="7" y="13" width="1" height="1"/>
      <rect class="cls-1" x="7" y="12" width="1" height="1"/>
      <rect class="cls-1" x="7" y="11" width="1" height="1"/>
      <rect class="cls-1" x="7" y="10" width="1" height="1"/>
      <rect class="cls-1" x="7" y="9" width="1" height="1"/>
      <rect class="cls-1" x="7" y="8" width="1" height="1"/>
      <rect class="cls-1" x="7" y="7" width="1" height="1"/>
      <rect class="cls-1" x="7" y="6" width="1" height="1"/>
      <rect class="cls-1" x="7" y="5" width="1" height="1"/>
      <rect class="cls-1" x="7" y="4" width="1" height="1"/>
      <rect class="cls-1" x="7" y="3" width="1" height="1"/>
      <rect class="cls-1" x="7" y="2" width="1" height="1"/>
      <rect class="cls-2" x="7" y="1" width="1" height="1"/>
      <rect class="cls-2" x="7" width="1" height="1"/>
      <rect class="cls-2" x="6" y="31" width="1" height="1"/>
      <rect class="cls-2" x="6" y="30" width="1" height="1"/>
      <rect class="cls-2" x="6" y="17" width="1" height="1"/>
      <rect class="cls-2" x="6" y="16" width="1" height="1"/>
      <rect class="cls-1" x="6" y="15" width="1" height="1"/>
      <rect class="cls-1" x="6" y="14" width="1" height="1"/>
      <rect class="cls-1" x="6" y="13" width="1" height="1"/>
      <rect class="cls-1" x="6" y="12" width="1" height="1"/>
      <rect class="cls-1" x="6" y="11" width="1" height="1"/>
      <rect class="cls-1" x="6" y="10" width="1" height="1"/>
      <rect class="cls-1" x="6" y="9" width="1" height="1"/>
      <rect class="cls-1" x="6" y="8" width="1" height="1"/>
      <rect class="cls-1" x="6" y="7" width="1" height="1"/>
      <rect class="cls-1" x="6" y="6" width="1" height="1"/>
      <rect class="cls-1" x="6" y="5" width="1" height="1"/>
      <rect class="cls-1" x="6" y="4" width="1" height="1"/>
      <rect class="cls-1" x="6" y="3" width="1" height="1"/>
      <rect class="cls-1" x="6" y="2" width="1" height="1"/>
      <rect class="cls-2" x="6" y="1" width="1" height="1"/>
      <rect class="cls-2" x="6" width="1" height="1"/>
      <rect class="cls-2" x="5" y="29" width="1" height="1"/>
      <rect class="cls-2" x="5" y="28" width="1" height="1"/>
      <rect class="cls-2" x="5" y="17" width="1" height="1"/>
      <rect class="cls-2" x="5" y="16" width="1" height="1"/>
      <rect class="cls-1" x="5" y="15" width="1" height="1"/>
      <rect class="cls-1" x="5" y="14" width="1" height="1"/>
      <rect class="cls-1" x="5" y="13" width="1" height="1"/>
      <rect class="cls-1" x="5" y="12" width="1" height="1"/>
      <rect class="cls-1" x="5" y="11" width="1" height="1"/>
      <rect class="cls-1" x="5" y="10" width="1" height="1"/>
      <rect class="cls-1" x="5" y="9" width="1" height="1"/>
      <rect class="cls-1" x="5" y="8" width="1" height="1"/>
      <rect class="cls-1" x="5" y="7" width="1" height="1"/>
      <rect class="cls-1" x="5" y="6" width="1" height="1"/>
      <rect class="cls-1" x="5" y="5" width="1" height="1"/>
      <rect class="cls-1" x="5" y="4" width="1" height="1"/>
      <rect class="cls-2" x="5" y="3" width="1" height="1"/>
      <rect class="cls-2" x="5" y="2" width="1" height="1"/>
      <rect class="cls-2" x="4" y="29" width="1" height="1"/>
      <rect class="cls-2" x="4" y="28" width="1" height="1"/>
      <rect class="cls-2" x="4" y="17" width="1" height="1"/>
      <rect class="cls-2" x="4" y="16" width="1" height="1"/>
      <rect class="cls-1" x="4" y="15" width="1" height="1"/>
      <rect class="cls-1" x="4" y="14" width="1" height="1"/>
      <rect class="cls-1" x="4" y="13" width="1" height="1"/>
      <rect class="cls-1" x="4" y="12" width="1" height="1"/>
      <rect class="cls-1" x="4" y="11" width="1" height="1"/>
      <rect class="cls-1" x="4" y="10" width="1" height="1"/>
      <rect class="cls-1" x="4" y="9" width="1" height="1"/>
      <rect class="cls-1" x="4" y="8" width="1" height="1"/>
      <rect class="cls-1" x="4" y="7" width="1" height="1"/>
      <rect class="cls-1" x="4" y="6" width="1" height="1"/>
      <rect class="cls-1" x="4" y="5" width="1" height="1"/>
      <rect class="cls-1" x="4" y="4" width="1" height="1"/>
      <rect class="cls-2" x="4" y="3" width="1" height="1"/>
      <rect class="cls-2" x="4" y="2" width="1" height="1"/>
      <rect class="cls-2" x="3" y="27" width="1" height="1"/>
      <rect class="cls-2" x="3" y="26" width="1" height="1"/>
      <rect class="cls-2" x="3" y="17" width="1" height="1"/>
      <rect class="cls-2" x="3" y="16" width="1" height="1"/>
      <rect class="cls-1" x="3" y="15" width="1" height="1"/>
      <rect class="cls-1" x="3" y="14" width="1" height="1"/>
      <rect class="cls-1" x="3" y="13" width="1" height="1"/>
      <rect class="cls-1" x="3" y="12" width="1" height="1"/>
      <rect class="cls-1" x="3" y="11" width="1" height="1"/>
      <rect class="cls-1" x="3" y="10" width="1" height="1"/>
      <rect class="cls-1" x="3" y="9" width="1" height="1"/>
      <rect class="cls-1" x="3" y="8" width="1" height="1"/>
      <rect class="cls-1" x="3" y="7" width="1" height="1"/>
      <rect class="cls-1" x="3" y="6" width="1" height="1"/>
      <rect class="cls-2" x="3" y="5" width="1" height="1"/>
      <rect class="cls-2" x="3" y="4" width="1" height="1"/>
      <rect class="cls-2" x="2" y="27" width="1" height="1"/>
      <rect class="cls-2" x="2" y="26" width="1" height="1"/>
      <rect class="cls-2" x="2" y="17" width="1" height="1"/>
      <rect class="cls-2" x="2" y="16" width="1" height="1"/>
      <rect class="cls-1" x="2" y="15" width="1" height="1"/>
      <rect class="cls-1" x="2" y="14" width="1" height="1"/>
      <rect class="cls-1" x="2" y="13" width="1" height="1"/>
      <rect class="cls-1" x="2" y="12" width="1" height="1"/>
      <rect class="cls-1" x="2" y="11" width="1" height="1"/>
      <rect class="cls-1" x="2" y="10" width="1" height="1"/>
      <rect class="cls-1" x="2" y="9" width="1" height="1"/>
      <rect class="cls-1" x="2" y="8" width="1" height="1"/>
      <rect class="cls-1" x="2" y="7" width="1" height="1"/>
      <rect class="cls-1" x="2" y="6" width="1" height="1"/>
      <rect class="cls-2" x="2" y="5" width="1" height="1"/>
      <rect class="cls-2" x="2" y="4" width="1" height="1"/>
      <rect class="cls-2" x="1" y="25" width="1" height="1"/>
      <rect class="cls-2" x="1" y="24" width="1" height="1"/>
      <rect class="cls-2" x="1" y="23" width="1" height="1"/>
      <rect class="cls-2" x="1" y="22" width="1" height="1"/>
      <rect class="cls-2" x="1" y="21" width="1" height="1"/>
      <rect class="cls-2" x="1" y="20" width="1" height="1"/>
      <rect class="cls-2" x="1" y="19" width="1" height="1"/>
      <rect class="cls-2" x="1" y="18" width="1" height="1"/>
      <rect class="cls-2" x="1" y="17" width="1" height="1"/>
      <rect class="cls-2" x="1" y="16" width="1" height="1"/>
      <rect class="cls-2" x="1" y="15" width="1" height="1"/>
      <rect class="cls-2" x="1" y="14" width="1" height="1"/>
      <rect class="cls-2" x="1" y="13" width="1" height="1"/>
      <rect class="cls-2" x="1" y="12" width="1" height="1"/>
      <rect class="cls-2" x="1" y="11" width="1" height="1"/>
      <rect class="cls-2" x="1" y="10" width="1" height="1"/>
      <rect class="cls-2" x="1" y="9" width="1" height="1"/>
      <rect class="cls-2" x="1" y="8" width="1" height="1"/>
      <rect class="cls-2" x="1" y="7" width="1" height="1"/>
      <rect class="cls-2" x="1" y="6" width="1" height="1"/>
      <rect class="cls-2" y="25" width="1" height="1"/>
      <rect class="cls-2" y="24" width="1" height="1"/>
      <rect class="cls-2" y="23" width="1" height="1"/>
      <rect class="cls-2" y="22" width="1" height="1"/>
      <rect class="cls-2" y="21" width="1" height="1"/>
      <rect class="cls-2" y="20" width="1" height="1"/>
      <rect class="cls-2" y="19" width="1" height="1"/>
      <rect class="cls-2" y="18" width="1" height="1"/>
      <rect class="cls-2" y="17" width="1" height="1"/>
      <rect class="cls-2" y="16" width="1" height="1"/>
      <rect class="cls-2" y="15" width="1" height="1"/>
      <rect class="cls-2" y="14" width="1" height="1"/>
      <rect class="cls-2" y="13" width="1" height="1"/>
      <rect class="cls-2" y="12" width="1" height="1"/>
      <rect class="cls-2" y="11" width="1" height="1"/>
      <rect class="cls-2" y="10" width="1" height="1"/>
      <rect class="cls-2" y="9" width="1" height="1"/>
      <rect class="cls-2" y="8" width="1" height="1"/>
      <rect class="cls-2" y="7" width="1" height="1"/>
      <rect class="cls-2" y="6" width="1" height="1"/>
    </g>
  </g>
</svg>